<svg xmlns="http://www.w3.org/2000/svg" width="300" height="300" viewBox="0 0 300 300">
  <rect width="300" height="300" fill="#4a4e69" />
  <path d="M150,70 C140,70 130,72 120,76 L120,180 C110,176 100,174 90,174 C70,174 50,184 50,200 C50,216 70,226 90,226 C110,226 130,216 130,200 L130,120 C140,116 150,114 160,114 C170,114 180,116 190,120 L190,180 C180,176 170,174 160,174 C140,174 120,184 120,200 C120,216 140,226 160,226 C180,226 200,216 200,200 L200,90 C200,80 180,70 150,70 Z" fill="#f2e9e4" />
</svg> 